<svg width="126" height="24" viewBox="0 0 126 24" fill="none" xmlns="http://www.w3.org/2000/svg">
<rect x="1" y="1" width="124" height="22" rx="2" fill="#006BCE" stroke="#006BCE" stroke-width="2"/>
<path d="M24 3C24 1.89543 24.8954 1 26 1H123C124.105 1 125 1.89543 125 3V21C125 22.1046 124.105 23 123 23H26C24.8954 23 24 22.1046 24 21V3Z" fill="white"/>
<rect x="11" y="5" width="3" height="13" rx="1.5" fill="white"/>
<rect x="19" y="10" width="3" height="13" rx="1.5" transform="rotate(90 19 10)" fill="white"/>
<mask id="path-5-outside-1_406_375" maskUnits="userSpaceOnUse" x="31" y="7" width="72" height="12" fill="black">
<rect fill="white" x="31" y="7" width="72" height="12"/>
<path d="M37.4746 7.62109V8.5H33.0801V11.3125H37.2695V12.1914H33.0801V16H31.9961V7.62109H37.4746ZM39.4434 12.9004C39.4434 14.3809 40.0586 15.1211 41.2891 15.1211C42.5195 15.1211 43.1348 14.3809 43.1348 12.9004C43.1348 11.4512 42.5195 10.7266 41.2891 10.7266C40.0586 10.7266 39.4434 11.4512 39.4434 12.9004ZM38.3594 12.9238C38.3594 10.873 39.3359 9.84766 41.2891 9.84766C43.2422 9.84766 44.2188 10.873 44.2188 12.9238C44.2188 14.9707 43.2422 15.9941 41.2891 15.9941C39.3438 15.9941 38.3672 14.9707 38.3594 12.9238ZM45.6836 16V9.84766H46.416L46.6094 10.6328C47.1484 10.1094 47.7969 9.84766 48.5547 9.84766V10.75C47.8203 10.75 47.2246 11.0098 46.7676 11.5293V16H45.6836ZM49.6445 16V9.84766H50.377L50.5586 10.6211C51.1484 10.1055 51.791 9.84766 52.4863 9.84766C53.377 9.84766 53.9844 10.1289 54.3086 10.6914C54.9766 10.1289 55.6543 9.84766 56.3418 9.84766C57.7559 9.84766 58.4629 10.627 58.4629 12.1855V16H57.3789V12.127C57.3789 11.209 56.9922 10.75 56.2188 10.75C55.6406 10.75 55.0996 11.0156 54.5957 11.5469V16H53.5117V12.1445C53.5117 11.2148 53.1289 10.75 52.3633 10.75C51.7539 10.75 51.209 11.0156 50.7285 11.5469V16H49.6445ZM59.9336 14.1426C59.9336 12.8809 60.7656 12.25 62.4297 12.25C62.9648 12.25 63.5 12.2891 64.0352 12.3672V11.7871C64.0352 11.0801 63.4824 10.7266 62.377 10.7266C61.7441 10.7266 61.0957 10.8242 60.4316 11.0195V10.1406C61.0957 9.94531 61.7441 9.84766 62.377 9.84766C64.2051 9.84766 65.1191 10.4844 65.1191 11.7578V16H64.5098L64.1348 15.3906C63.5215 15.7969 62.8535 16 62.1309 16C60.666 16 59.9336 15.3809 59.9336 14.1426ZM62.4297 13.1289C61.4883 13.1289 61.0176 13.4609 61.0176 14.125C61.0176 14.7891 61.3887 15.1211 62.1309 15.1211C62.8809 15.1211 63.5156 14.9219 64.0352 14.5234V13.2461C63.5 13.168 62.9648 13.1289 62.4297 13.1289ZM71.5117 15.8242C71.0039 15.9414 70.457 16 69.8711 16C67.6836 16 66.5898 14.9355 66.5898 12.8066C66.5898 10.834 67.6836 9.84766 69.8711 9.84766C70.457 9.84766 71.0039 9.90625 71.5117 10.0234V10.9023C71.0039 10.7852 70.4375 10.7266 69.8125 10.7266C68.3867 10.7266 67.6738 11.4199 67.6738 12.8066C67.6738 14.3496 68.3867 15.1211 69.8125 15.1211C70.4375 15.1211 71.0039 15.0625 71.5117 14.9453V15.8242ZM73.6855 12.9004C73.6855 14.3809 74.3008 15.1211 75.5312 15.1211C76.7617 15.1211 77.377 14.3809 77.377 12.9004C77.377 11.4512 76.7617 10.7266 75.5312 10.7266C74.3008 10.7266 73.6855 11.4512 73.6855 12.9004ZM72.6016 12.9238C72.6016 10.873 73.5781 9.84766 75.5312 9.84766C77.4844 9.84766 78.4609 10.873 78.4609 12.9238C78.4609 14.9707 77.4844 15.9941 75.5312 15.9941C73.5859 15.9941 72.6094 14.9707 72.6016 12.9238ZM81.0684 7.62109V16H79.9844V7.62109H81.0684ZM83.6816 12.9004C83.6816 14.3809 84.2969 15.1211 85.5273 15.1211C86.7578 15.1211 87.373 14.3809 87.373 12.9004C87.373 11.4512 86.7578 10.7266 85.5273 10.7266C84.2969 10.7266 83.6816 11.4512 83.6816 12.9004ZM82.5977 12.9238C82.5977 10.873 83.5742 9.84766 85.5273 9.84766C87.4805 9.84766 88.457 10.873 88.457 12.9238C88.457 14.9707 87.4805 15.9941 85.5273 15.9941C83.582 15.9941 82.6055 14.9707 82.5977 12.9238ZM94.0352 10.8906C93.6641 10.7969 93.2051 10.75 92.6582 10.75C91.3496 10.75 90.6953 11.459 90.6953 12.877C90.6953 14.334 91.3145 15.0625 92.5527 15.0625C93.1152 15.0625 93.6094 14.957 94.0352 14.7461V10.8906ZM95.1191 16C95.1191 17.4844 94.1758 18.2266 92.2891 18.2266C91.5312 18.2266 90.8594 18.1289 90.2734 17.9336V17.0547C90.8711 17.25 91.5469 17.3477 92.3008 17.3477C93.457 17.3477 94.0352 16.8984 94.0352 16V15.707C93.5742 15.9023 93.0781 16 92.5469 16C90.6016 16 89.6289 14.9629 89.6289 12.8887C89.6289 10.8613 90.6543 9.84766 92.7051 9.84766C93.5371 9.84766 94.3418 9.93164 95.1191 10.0996V16ZM96.1504 9.84766H97.3281L99.0684 14.6523L100.867 9.84766H102.016L99.4609 16.1816C99.0078 17.2988 98.3281 17.9961 97.4219 18.2734L97.0059 17.5059C97.6934 17.2051 98.1934 16.7148 98.5059 16.0352L96.1504 9.84766Z"/>
</mask>
<path d="M37.4746 7.62109V8.5H33.0801V11.3125H37.2695V12.1914H33.0801V16H31.9961V7.62109H37.4746ZM39.4434 12.9004C39.4434 14.3809 40.0586 15.1211 41.2891 15.1211C42.5195 15.1211 43.1348 14.3809 43.1348 12.9004C43.1348 11.4512 42.5195 10.7266 41.2891 10.7266C40.0586 10.7266 39.4434 11.4512 39.4434 12.9004ZM38.3594 12.9238C38.3594 10.873 39.3359 9.84766 41.2891 9.84766C43.2422 9.84766 44.2188 10.873 44.2188 12.9238C44.2188 14.9707 43.2422 15.9941 41.2891 15.9941C39.3438 15.9941 38.3672 14.9707 38.3594 12.9238ZM45.6836 16V9.84766H46.416L46.6094 10.6328C47.1484 10.1094 47.7969 9.84766 48.5547 9.84766V10.75C47.8203 10.75 47.2246 11.0098 46.7676 11.5293V16H45.6836ZM49.6445 16V9.84766H50.377L50.5586 10.6211C51.1484 10.1055 51.791 9.84766 52.4863 9.84766C53.377 9.84766 53.9844 10.1289 54.3086 10.6914C54.9766 10.1289 55.6543 9.84766 56.3418 9.84766C57.7559 9.84766 58.4629 10.627 58.4629 12.1855V16H57.3789V12.127C57.3789 11.209 56.9922 10.75 56.2188 10.75C55.6406 10.75 55.0996 11.0156 54.5957 11.5469V16H53.5117V12.1445C53.5117 11.2148 53.1289 10.75 52.3633 10.75C51.7539 10.75 51.209 11.0156 50.7285 11.5469V16H49.6445ZM59.9336 14.1426C59.9336 12.8809 60.7656 12.25 62.4297 12.25C62.9648 12.25 63.5 12.2891 64.0352 12.3672V11.7871C64.0352 11.0801 63.4824 10.7266 62.377 10.7266C61.7441 10.7266 61.0957 10.8242 60.4316 11.0195V10.1406C61.0957 9.94531 61.7441 9.84766 62.377 9.84766C64.2051 9.84766 65.1191 10.4844 65.1191 11.7578V16H64.5098L64.1348 15.3906C63.5215 15.7969 62.8535 16 62.1309 16C60.666 16 59.9336 15.3809 59.9336 14.1426ZM62.4297 13.1289C61.4883 13.1289 61.0176 13.4609 61.0176 14.125C61.0176 14.7891 61.3887 15.1211 62.1309 15.1211C62.8809 15.1211 63.5156 14.9219 64.0352 14.5234V13.2461C63.5 13.168 62.9648 13.1289 62.4297 13.1289ZM71.5117 15.8242C71.0039 15.9414 70.457 16 69.8711 16C67.6836 16 66.5898 14.9355 66.5898 12.8066C66.5898 10.834 67.6836 9.84766 69.8711 9.84766C70.457 9.84766 71.0039 9.90625 71.5117 10.0234V10.9023C71.0039 10.7852 70.4375 10.7266 69.8125 10.7266C68.3867 10.7266 67.6738 11.4199 67.6738 12.8066C67.6738 14.3496 68.3867 15.1211 69.8125 15.1211C70.4375 15.1211 71.0039 15.0625 71.5117 14.9453V15.8242ZM73.6855 12.9004C73.6855 14.3809 74.3008 15.1211 75.5312 15.1211C76.7617 15.1211 77.377 14.3809 77.377 12.9004C77.377 11.4512 76.7617 10.7266 75.5312 10.7266C74.3008 10.7266 73.6855 11.4512 73.6855 12.9004ZM72.6016 12.9238C72.6016 10.873 73.5781 9.84766 75.5312 9.84766C77.4844 9.84766 78.4609 10.873 78.4609 12.9238C78.4609 14.9707 77.4844 15.9941 75.5312 15.9941C73.5859 15.9941 72.6094 14.9707 72.6016 12.9238ZM81.0684 7.62109V16H79.9844V7.62109H81.0684ZM83.6816 12.9004C83.6816 14.3809 84.2969 15.1211 85.5273 15.1211C86.7578 15.1211 87.373 14.3809 87.373 12.9004C87.373 11.4512 86.7578 10.7266 85.5273 10.7266C84.2969 10.7266 83.6816 11.4512 83.6816 12.9004ZM82.5977 12.9238C82.5977 10.873 83.5742 9.84766 85.5273 9.84766C87.4805 9.84766 88.457 10.873 88.457 12.9238C88.457 14.9707 87.4805 15.9941 85.5273 15.9941C83.582 15.9941 82.6055 14.9707 82.5977 12.9238ZM94.0352 10.8906C93.6641 10.7969 93.2051 10.75 92.6582 10.75C91.3496 10.75 90.6953 11.459 90.6953 12.877C90.6953 14.334 91.3145 15.0625 92.5527 15.0625C93.1152 15.0625 93.6094 14.957 94.0352 14.7461V10.8906ZM95.1191 16C95.1191 17.4844 94.1758 18.2266 92.2891 18.2266C91.5312 18.2266 90.8594 18.1289 90.2734 17.9336V17.0547C90.8711 17.25 91.5469 17.3477 92.3008 17.3477C93.457 17.3477 94.0352 16.8984 94.0352 16V15.707C93.5742 15.9023 93.0781 16 92.5469 16C90.6016 16 89.6289 14.9629 89.6289 12.8887C89.6289 10.8613 90.6543 9.84766 92.7051 9.84766C93.5371 9.84766 94.3418 9.93164 95.1191 10.0996V16ZM96.1504 9.84766H97.3281L99.0684 14.6523L100.867 9.84766H102.016L99.4609 16.1816C99.0078 17.2988 98.3281 17.9961 97.4219 18.2734L97.0059 17.5059C97.6934 17.2051 98.1934 16.7148 98.5059 16.0352L96.1504 9.84766Z" fill="#006BCE"/>
<path d="M37.4746 7.62109H37.5746V7.52109H37.4746V7.62109ZM37.4746 8.5V8.6H37.5746V8.5H37.4746ZM33.0801 8.5V8.4H32.9801V8.5H33.0801ZM33.0801 11.3125H32.9801V11.4125H33.0801V11.3125ZM37.2695 11.3125H37.3695V11.2125H37.2695V11.3125ZM37.2695 12.1914V12.2914H37.3695V12.1914H37.2695ZM33.0801 12.1914V12.0914H32.9801V12.1914H33.0801ZM33.0801 16V16.1H33.1801V16H33.0801ZM31.9961 16H31.8961V16.1H31.9961V16ZM31.9961 7.62109V7.52109H31.8961V7.62109H31.9961ZM37.4746 7.62109H37.3746V8.5H37.4746H37.5746V7.62109H37.4746ZM37.4746 8.5V8.4H33.0801V8.5V8.6H37.4746V8.5ZM33.0801 8.5H32.9801V11.3125H33.0801H33.1801V8.5H33.0801ZM33.0801 11.3125V11.4125H37.2695V11.3125V11.2125H33.0801V11.3125ZM37.2695 11.3125H37.1695V12.1914H37.2695H37.3695V11.3125H37.2695ZM37.2695 12.1914V12.0914H33.0801V12.1914V12.2914H37.2695V12.1914ZM33.0801 12.1914H32.9801V16H33.0801H33.1801V12.1914H33.0801ZM33.0801 16V15.9H31.9961V16V16.1H33.0801V16ZM31.9961 16H32.0961V7.62109H31.9961H31.8961V16H31.9961ZM31.9961 7.62109V7.72109H37.4746V7.62109V7.52109H31.9961V7.62109ZM38.3594 12.9238L38.2594 12.9238L38.2594 12.9242L38.3594 12.9238ZM39.4434 12.9004H39.3434C39.3434 13.652 39.4991 14.2343 39.8279 14.6298C40.1596 15.0289 40.653 15.2211 41.2891 15.2211V15.1211V15.0211C40.6946 15.0211 40.2653 14.8432 39.9817 14.502C39.6952 14.1573 39.5434 13.6293 39.5434 12.9004H39.4434ZM41.2891 15.1211V15.2211C41.9251 15.2211 42.4186 15.0289 42.7502 14.6298C43.079 14.2343 43.2348 13.652 43.2348 12.9004H43.1348H43.0348C43.0348 13.6293 42.8829 14.1573 42.5964 14.502C42.3129 14.8432 41.8835 15.0211 41.2891 15.0211V15.1211ZM43.1348 12.9004H43.2348C43.2348 12.164 43.0788 11.5931 42.7496 11.2053C42.4177 10.8144 41.9244 10.6266 41.2891 10.6266V10.7266V10.8266C41.8842 10.8266 42.3138 11.001 42.5971 11.3347C42.8831 11.6716 43.0348 12.1876 43.0348 12.9004H43.1348ZM41.2891 10.7266V10.6266C40.6537 10.6266 40.1604 10.8144 39.8286 11.2053C39.4993 11.5931 39.3434 12.164 39.3434 12.9004H39.4434H39.5434C39.5434 12.1876 39.695 11.6716 39.981 11.3347C40.2644 11.001 40.6939 10.8266 41.2891 10.8266V10.7266ZM38.3594 12.9238H38.4594C38.4594 11.9127 38.7002 11.1729 39.1642 10.6857C39.6273 10.1994 40.3292 9.94766 41.2891 9.94766V9.84766V9.74766C40.2958 9.74766 39.5328 10.0086 39.0194 10.5477C38.5068 11.0859 38.2594 11.8842 38.2594 12.9238H38.3594ZM41.2891 9.84766V9.94766C42.2489 9.94766 42.9508 10.1994 43.4139 10.6857C43.8779 11.1729 44.1187 11.9127 44.1187 12.9238H44.2188H44.3188C44.3188 11.8842 44.0713 11.0859 43.5587 10.5477C43.0453 10.0086 42.2823 9.74766 41.2891 9.74766V9.84766ZM44.2188 12.9238H44.1187C44.1187 13.933 43.8779 14.6713 43.414 15.1575C42.9509 15.6429 42.249 15.8941 41.2891 15.8941V15.9941V16.0941C42.2823 16.0941 43.0452 15.8337 43.5587 15.2956C44.0713 14.7584 44.3188 13.9615 44.3188 12.9238H44.2188ZM41.2891 15.9941V15.8941C40.3332 15.8941 39.6332 15.643 39.17 15.1575C38.7059 14.6712 38.4632 13.9327 38.4594 12.9234L38.3594 12.9238L38.2594 12.9242C38.2633 13.9619 38.5128 14.7585 39.0253 15.2956C39.5387 15.8336 40.2996 16.0941 41.2891 16.0941V15.9941ZM45.6836 16H45.5836V16.1H45.6836V16ZM45.6836 9.84766V9.74766H45.5836V9.84766H45.6836ZM46.416 9.84766L46.5131 9.82374L46.4944 9.74766H46.416V9.84766ZM46.6094 10.6328L46.5123 10.6567L46.554 10.826L46.679 10.7046L46.6094 10.6328ZM48.5547 9.84766H48.6547V9.74766H48.5547V9.84766ZM48.5547 10.75V10.85H48.6547V10.75H48.5547ZM46.7676 11.5293L46.6925 11.4632L46.6676 11.4916V11.5293H46.7676ZM46.7676 16V16.1H46.8676V16H46.7676ZM45.6836 16H45.7836V9.84766H45.6836H45.5836V16H45.6836ZM45.6836 9.84766V9.94766H46.416V9.84766V9.74766H45.6836V9.84766ZM46.416 9.84766L46.3189 9.87157L46.5123 10.6567L46.6094 10.6328L46.7065 10.6089L46.5131 9.82374L46.416 9.84766ZM46.6094 10.6328L46.679 10.7046C47.1993 10.1994 47.8226 9.94766 48.5547 9.94766V9.84766V9.74766C47.7711 9.74766 47.0976 10.0193 46.5397 10.5611L46.6094 10.6328ZM48.5547 9.84766H48.4547V10.75H48.5547H48.6547V9.84766H48.5547ZM48.5547 10.75V10.65C47.7936 10.65 47.1698 10.9207 46.6925 11.4632L46.7676 11.5293L46.8427 11.5953C47.2794 11.0989 47.8471 10.85 48.5547 10.85V10.75ZM46.7676 11.5293H46.6676V16H46.7676H46.8676V11.5293H46.7676ZM46.7676 16V15.9H45.6836V16V16.1H46.7676V16ZM49.6445 16H49.5445V16.1H49.6445V16ZM49.6445 9.84766V9.74766H49.5445V9.84766H49.6445ZM50.377 9.84766L50.4743 9.82479L50.4562 9.74766H50.377V9.84766ZM50.5586 10.6211L50.4612 10.644L50.4992 10.8058L50.6244 10.6964L50.5586 10.6211ZM54.3086 10.6914L54.222 10.7413L54.2816 10.8449L54.373 10.7679L54.3086 10.6914ZM58.4629 16V16.1H58.5629V16H58.4629ZM57.3789 16H57.2789V16.1H57.3789V16ZM54.5957 11.5469L54.5231 11.4781L54.4957 11.507V11.5469H54.5957ZM54.5957 16V16.1H54.6957V16H54.5957ZM53.5117 16H53.4117V16.1H53.5117V16ZM50.7285 11.5469L50.6543 11.4798L50.6285 11.5084V11.5469H50.7285ZM50.7285 16V16.1H50.8285V16H50.7285ZM49.6445 16H49.7445V9.84766H49.6445H49.5445V16H49.6445ZM49.6445 9.84766V9.94766H50.377V9.84766V9.74766H49.6445V9.84766ZM50.377 9.84766L50.2796 9.87052L50.4612 10.644L50.5586 10.6211L50.6559 10.5982L50.4743 9.82479L50.377 9.84766ZM50.5586 10.6211L50.6244 10.6964C51.1985 10.1945 51.8183 9.94766 52.4863 9.94766V9.84766V9.74766C51.7637 9.74766 51.0984 10.0164 50.4928 10.5458L50.5586 10.6211ZM52.4863 9.84766V9.94766C53.3562 9.94766 53.922 10.2209 54.222 10.7413L54.3086 10.6914L54.3952 10.6415C54.0468 10.0369 53.3977 9.74766 52.4863 9.74766V9.84766ZM54.3086 10.6914L54.373 10.7679C55.0279 10.2164 55.6837 9.94766 56.3418 9.94766V9.84766V9.74766C55.6249 9.74766 54.9252 10.0414 54.2442 10.6149L54.3086 10.6914ZM56.3418 9.84766V9.94766C57.0308 9.94766 57.5299 10.1371 57.8586 10.4993C58.1889 10.8634 58.3629 11.4194 58.3629 12.1855H58.4629H58.5629C58.5629 11.3931 58.3834 10.7801 58.0067 10.3649C57.6283 9.9479 57.0669 9.74766 56.3418 9.74766V9.84766ZM58.4629 12.1855H58.3629V16H58.4629H58.5629V12.1855H58.4629ZM58.4629 16V15.9H57.3789V16V16.1H58.4629V16ZM57.3789 16H57.4789V12.127H57.3789H57.2789V16H57.3789ZM57.3789 12.127H57.4789C57.4789 11.6563 57.3801 11.2847 57.1653 11.0298C56.9478 10.7716 56.6258 10.65 56.2188 10.65V10.75V10.85C56.5851 10.85 56.8432 10.9579 57.0124 11.1587C57.1843 11.3627 57.2789 11.6796 57.2789 12.127H57.3789ZM56.2188 10.75V10.65C55.6063 10.65 55.0406 10.9325 54.5231 11.4781L54.5957 11.5469L54.6683 11.6157C55.1586 11.0987 55.675 10.85 56.2188 10.85V10.75ZM54.5957 11.5469H54.4957V16H54.5957H54.6957V11.5469H54.5957ZM54.5957 16V15.9H53.5117V16V16.1H54.5957V16ZM53.5117 16H53.6117V12.1445H53.5117H53.4117V16H53.5117ZM53.5117 12.1445H53.6117C53.6117 11.6685 53.5141 11.2929 53.3018 11.0351C53.0864 10.7735 52.7672 10.65 52.3633 10.65V10.75V10.85C52.725 10.85 52.98 10.9589 53.1474 11.1622C53.3179 11.3693 53.4117 11.6909 53.4117 12.1445H53.5117ZM52.3633 10.75V10.65C51.7206 10.65 51.1501 10.9316 50.6543 11.4798L50.7285 11.5469L50.8027 11.614C51.2678 11.0996 51.7872 10.85 52.3633 10.85V10.75ZM50.7285 11.5469H50.6285V16H50.7285H50.8285V11.5469H50.7285ZM50.7285 16V15.9H49.6445V16V16.1H50.7285V16ZM64.0352 12.3672L64.0207 12.4661L64.1352 12.4828V12.3672H64.0352ZM60.4316 11.0195H60.3316V11.1532L60.4599 11.1155L60.4316 11.0195ZM60.4316 10.1406L60.4034 10.0447L60.3316 10.0658V10.1406H60.4316ZM65.1191 16V16.1H65.2191V16H65.1191ZM64.5098 16L64.4246 16.0524L64.4539 16.1H64.5098V16ZM64.1348 15.3906L64.2199 15.3382L64.1657 15.2502L64.0795 15.3073L64.1348 15.3906ZM64.0352 14.5234L64.096 14.6028L64.1352 14.5728V14.5234H64.0352ZM64.0352 13.2461H64.1352V13.1596L64.0496 13.1471L64.0352 13.2461ZM59.9336 14.1426H60.0336C60.0336 13.5357 60.2322 13.0953 60.618 12.8028C61.009 12.5064 61.6074 12.35 62.4297 12.35V12.25V12.15C61.5879 12.15 60.9382 12.3091 60.4972 12.6435C60.051 12.9818 59.8336 13.4877 59.8336 14.1426H59.9336ZM62.4297 12.25V12.35C62.96 12.35 63.4903 12.3887 64.0207 12.4661L64.0352 12.3672L64.0496 12.2682C63.5097 12.1894 62.9697 12.15 62.4297 12.15V12.25ZM64.0352 12.3672H64.1352V11.7871H64.0352H63.9352V12.3672H64.0352ZM64.0352 11.7871H64.1352C64.1352 11.4027 63.9822 11.1042 63.6745 10.9075C63.3744 10.7156 62.9371 10.6266 62.377 10.6266V10.7266V10.8266C62.9222 10.8266 63.314 10.9143 63.5667 11.0759C63.8118 11.2327 63.9352 11.4645 63.9352 11.7871H64.0352ZM62.377 10.7266V10.6266C61.7337 10.6266 61.0758 10.7258 60.4034 10.9236L60.4316 11.0195L60.4599 11.1155C61.1156 10.9226 61.7545 10.8266 62.377 10.8266V10.7266ZM60.4316 11.0195H60.5316V10.1406H60.4316H60.3316V11.0195H60.4316ZM60.4316 10.1406L60.4599 10.2366C61.1156 10.0437 61.7545 9.94766 62.377 9.94766V9.84766V9.74766C61.7337 9.74766 61.0758 9.84693 60.4034 10.0447L60.4316 10.1406ZM62.377 9.84766V9.94766C63.2825 9.94766 63.9438 10.1059 64.3764 10.4073C64.8025 10.704 65.0191 11.1484 65.0191 11.7578H65.1191H65.2191C65.2191 11.0938 64.9788 10.5831 64.4908 10.2431C64.0093 9.90776 63.2995 9.74766 62.377 9.74766V9.84766ZM65.1191 11.7578H65.0191V16H65.1191H65.2191V11.7578H65.1191ZM65.1191 16V15.9H64.5098V16V16.1H65.1191V16ZM64.5098 16L64.5949 15.9476L64.2199 15.3382L64.1348 15.3906L64.0496 15.443L64.4246 16.0524L64.5098 16ZM64.1348 15.3906L64.0795 15.3073C63.4823 15.7029 62.8335 15.9 62.1309 15.9V16V16.1C62.8735 16.1 63.5606 15.8909 64.19 15.474L64.1348 15.3906ZM62.1309 16V15.9C61.4101 15.9 60.8882 15.7473 60.5475 15.4593C60.2099 15.1739 60.0336 14.7415 60.0336 14.1426H59.9336H59.8336C59.8336 14.7819 60.0235 15.2782 60.4184 15.612C60.81 15.9431 61.3867 16.1 62.1309 16.1V16ZM62.4297 13.1289V13.0289C61.9503 13.0289 61.5728 13.1129 61.313 13.2962C61.0467 13.484 60.9176 13.7662 60.9176 14.125H61.0176H61.1176C61.1176 13.8198 61.2238 13.6039 61.4282 13.4596C61.6391 13.3109 61.9677 13.2289 62.4297 13.2289V13.1289ZM61.0176 14.125H60.9176C60.9176 14.4755 61.016 14.7558 61.2292 14.9466C61.4403 15.1355 61.7469 15.2211 62.1309 15.2211V15.1211V15.0211C61.7726 15.0211 61.5226 14.9407 61.3626 14.7975C61.2047 14.6563 61.1176 14.4386 61.1176 14.125H61.0176ZM62.1309 15.1211V15.2211C62.8995 15.2211 63.5565 15.0165 64.096 14.6028L64.0352 14.5234L63.9743 14.4441C63.4747 14.8272 62.8622 15.0211 62.1309 15.0211V15.1211ZM64.0352 14.5234H64.1352V13.2461H64.0352H63.9352V14.5234H64.0352ZM64.0352 13.2461L64.0496 13.1471C63.5097 13.0683 62.9697 13.0289 62.4297 13.0289V13.1289V13.2289C62.96 13.2289 63.4903 13.2676 64.0207 13.345L64.0352 13.2461ZM71.5117 15.8242L71.5342 15.9217L71.6117 15.9038V15.8242H71.5117ZM71.5117 10.0234H71.6117V9.94389L71.5342 9.926L71.5117 10.0234ZM71.5117 10.9023L71.4892 10.9998L71.6117 11.028V10.9023H71.5117ZM71.5117 14.9453H71.6117V14.8196L71.4892 14.8479L71.5117 14.9453ZM71.5117 15.8242L71.4892 15.7268C70.9896 15.8421 70.4504 15.9 69.8711 15.9V16V16.1C70.4637 16.1 71.0182 16.0407 71.5342 15.9217L71.5117 15.8242ZM69.8711 16V15.9C68.7921 15.9 68.0013 15.6375 67.4799 15.13C66.959 14.623 66.6898 13.855 66.6898 12.8066H66.5898H66.4898C66.4898 13.8872 66.7676 14.7158 67.3404 15.2733C67.9127 15.8303 68.7626 16.1 69.8711 16.1V16ZM66.5898 12.8066H66.6898C66.6898 11.8385 66.9578 11.13 67.4771 10.6617C67.9985 10.1915 68.7904 9.94766 69.8711 9.94766V9.84766V9.74766C68.7643 9.74766 67.9156 9.99695 67.3432 10.5131C66.7688 11.0311 66.4898 11.8021 66.4898 12.8066H66.5898ZM69.8711 9.84766V9.94766C70.4504 9.94766 70.9896 10.0056 71.4892 10.1209L71.5117 10.0234L71.5342 9.926C71.0182 9.80691 70.4637 9.74766 69.8711 9.74766V9.84766ZM71.5117 10.0234H71.4117V10.9023H71.5117H71.6117V10.0234H71.5117ZM71.5117 10.9023L71.5342 10.8049C71.0177 10.6857 70.4436 10.6266 69.8125 10.6266V10.7266V10.8266C70.4314 10.8266 70.9901 10.8846 71.4892 10.9998L71.5117 10.9023ZM69.8125 10.7266V10.6266C69.0849 10.6266 68.5207 10.8035 68.1388 11.1749C67.7564 11.5468 67.5738 12.0972 67.5738 12.8066H67.6738H67.7738C67.7738 12.1294 67.9477 11.6397 68.2782 11.3183C68.6092 10.9963 69.1143 10.8266 69.8125 10.8266V10.7266ZM67.6738 12.8066H67.5738C67.5738 13.5917 67.755 14.1991 68.1351 14.6103C68.5165 15.0231 69.0821 15.2211 69.8125 15.2211V15.1211V15.0211C69.1171 15.0211 68.6134 14.8333 68.2819 14.4746C67.9491 14.1144 67.7738 13.5646 67.7738 12.8066H67.6738ZM69.8125 15.1211V15.2211C70.4436 15.2211 71.0177 15.1619 71.5342 15.0428L71.5117 14.9453L71.4892 14.8479C70.9901 14.9631 70.4314 15.0211 69.8125 15.0211V15.1211ZM71.5117 14.9453H71.4117V15.8242H71.5117H71.6117V14.9453H71.5117ZM72.6016 12.9238L72.5016 12.9238L72.5016 12.9242L72.6016 12.9238ZM73.6855 12.9004H73.5855C73.5855 13.652 73.7413 14.2343 74.0701 14.6298C74.4017 15.0289 74.8952 15.2211 75.5312 15.2211V15.1211V15.0211C74.9368 15.0211 74.5074 14.8432 74.2239 14.502C73.9374 14.1573 73.7855 13.6293 73.7855 12.9004H73.6855ZM75.5312 15.1211V15.2211C76.1673 15.2211 76.6608 15.0289 76.9924 14.6298C77.3212 14.2343 77.477 13.652 77.477 12.9004H77.377H77.277C77.277 13.6293 77.1251 14.1573 76.8386 14.502C76.5551 14.8432 76.1257 15.0211 75.5312 15.0211V15.1211ZM77.377 12.9004H77.477C77.477 12.164 77.321 11.5931 76.9918 11.2053C76.6599 10.8144 76.1666 10.6266 75.5312 10.6266V10.7266V10.8266C76.1264 10.8266 76.556 11.001 76.8393 11.3347C77.1253 11.6716 77.277 12.1876 77.277 12.9004H77.377ZM75.5312 10.7266V10.6266C74.8959 10.6266 74.4026 10.8144 74.0707 11.2053C73.7415 11.5931 73.5855 12.164 73.5855 12.9004H73.6855H73.7855C73.7855 12.1876 73.9372 11.6716 74.2232 11.3347C74.5065 11.001 74.9361 10.8266 75.5312 10.8266V10.7266ZM72.6016 12.9238H72.7016C72.7016 11.9127 72.9424 11.1729 73.4064 10.6857C73.8695 10.1994 74.5714 9.94766 75.5312 9.94766V9.84766V9.74766C74.538 9.74766 73.775 10.0086 73.2616 10.5477C72.749 11.0859 72.5016 11.8842 72.5016 12.9238H72.6016ZM75.5312 9.84766V9.94766C76.4911 9.94766 77.193 10.1994 77.6561 10.6857C78.1201 11.1729 78.3609 11.9127 78.3609 12.9238H78.4609H78.5609C78.5609 11.8842 78.3135 11.0859 77.8009 10.5477C77.2875 10.0086 76.5245 9.74766 75.5312 9.74766V9.84766ZM78.4609 12.9238H78.3609C78.3609 13.933 78.1201 14.6713 77.6562 15.1575C77.193 15.6429 76.4912 15.8941 75.5312 15.8941V15.9941V16.0941C76.5245 16.0941 77.2874 15.8337 77.8009 15.2956C78.3135 14.7584 78.5609 13.9615 78.5609 12.9238H78.4609ZM75.5312 15.9941V15.8941C74.5754 15.8941 73.8754 15.643 73.4122 15.1575C72.9481 14.6712 72.7054 13.9327 72.7016 12.9234L72.6016 12.9238L72.5016 12.9242C72.5055 13.9619 72.755 14.7585 73.2675 15.2956C73.7809 15.8336 74.5418 16.0941 75.5312 16.0941V15.9941ZM81.0684 7.62109H81.1684V7.52109H81.0684V7.62109ZM81.0684 16V16.1H81.1684V16H81.0684ZM79.9844 16H79.8844V16.1H79.9844V16ZM79.9844 7.62109V7.52109H79.8844V7.62109H79.9844ZM81.0684 7.62109H80.9684V16H81.0684H81.1684V7.62109H81.0684ZM81.0684 16V15.9H79.9844V16V16.1H81.0684V16ZM79.9844 16H80.0844V7.62109H79.9844H79.8844V16H79.9844ZM79.9844 7.62109V7.72109H81.0684V7.62109V7.52109H79.9844V7.62109ZM82.5977 12.9238L82.4977 12.9238L82.4977 12.9242L82.5977 12.9238ZM83.6816 12.9004H83.5816C83.5816 13.652 83.7374 14.2343 84.0662 14.6298C84.3978 15.0289 84.8913 15.2211 85.5273 15.2211V15.1211V15.0211C84.9329 15.0211 84.5035 14.8432 84.22 14.502C83.9335 14.1573 83.7816 13.6293 83.7816 12.9004H83.6816ZM85.5273 15.1211V15.2211C86.1634 15.2211 86.6569 15.0289 86.9885 14.6298C87.3173 14.2343 87.473 13.652 87.473 12.9004H87.373H87.273C87.273 13.6293 87.1212 14.1573 86.8347 14.502C86.5512 14.8432 86.1218 15.0211 85.5273 15.0211V15.1211ZM87.373 12.9004H87.473C87.473 12.164 87.3171 11.5931 86.9879 11.2053C86.656 10.8144 86.1627 10.6266 85.5273 10.6266V10.7266V10.8266C86.1225 10.8266 86.5521 11.001 86.8354 11.3347C87.1214 11.6716 87.273 12.1876 87.273 12.9004H87.373ZM85.5273 10.7266V10.6266C84.892 10.6266 84.3987 10.8144 84.0668 11.2053C83.7376 11.5931 83.5816 12.164 83.5816 12.9004H83.6816H83.7816C83.7816 12.1876 83.9333 11.6716 84.2193 11.3347C84.5026 11.001 84.9322 10.8266 85.5273 10.8266V10.7266ZM82.5977 12.9238H82.6977C82.6977 11.9127 82.9385 11.1729 83.4025 10.6857C83.8656 10.1994 84.5675 9.94766 85.5273 9.94766V9.84766V9.74766C84.5341 9.74766 83.7711 10.0086 83.2577 10.5477C82.7451 11.0859 82.4977 11.8842 82.4977 12.9238H82.5977ZM85.5273 9.84766V9.94766C86.4872 9.94766 87.1891 10.1994 87.6522 10.6857C88.1162 11.1729 88.357 11.9127 88.357 12.9238H88.457H88.557C88.557 11.8842 88.3096 11.0859 87.797 10.5477C87.2836 10.0086 86.5206 9.74766 85.5273 9.74766V9.84766ZM88.457 12.9238H88.357C88.357 13.933 88.1162 14.6713 87.6523 15.1575C87.1891 15.6429 86.4873 15.8941 85.5273 15.8941V15.9941V16.0941C86.5205 16.0941 87.2835 15.8337 87.797 15.2956C88.3096 14.7584 88.557 13.9615 88.557 12.9238H88.457ZM85.5273 15.9941V15.8941C84.5715 15.8941 83.8715 15.643 83.4083 15.1575C82.9442 14.6712 82.7015 13.9327 82.6977 12.9234L82.5977 12.9238L82.4977 12.9242C82.5016 13.9619 82.7511 14.7585 83.2636 15.2956C83.777 15.8336 84.5379 16.0941 85.5273 16.0941V15.9941ZM94.0352 10.8906H94.1352V10.8127L94.0596 10.7937L94.0352 10.8906ZM94.0352 14.7461L94.0795 14.8357L94.1352 14.8082V14.7461H94.0352ZM90.2734 17.9336H90.1734V18.0057L90.2418 18.0285L90.2734 17.9336ZM90.2734 17.0547L90.3045 16.9596L90.1734 16.9168V17.0547H90.2734ZM94.0352 15.707H94.1352V15.5561L93.9961 15.615L94.0352 15.707ZM95.1191 10.0996H95.2191V10.0189L95.1403 10.0019L95.1191 10.0996ZM94.0352 10.8906L94.0596 10.7937C93.6779 10.6972 93.2101 10.65 92.6582 10.65V10.75V10.85C93.2 10.85 93.6502 10.8965 94.0107 10.9876L94.0352 10.8906ZM92.6582 10.75V10.65C91.9863 10.65 91.4647 10.8324 91.1125 11.2139C90.7618 11.5939 90.5953 12.1545 90.5953 12.877H90.6953H90.7953C90.7953 12.1815 90.9559 11.6785 91.2595 11.3496C91.5617 11.0221 92.0215 10.85 92.6582 10.85V10.75ZM90.6953 12.877H90.5953C90.5953 13.6173 90.7523 14.1912 91.0835 14.5809C91.4173 14.9737 91.9135 15.1625 92.5527 15.1625V15.0625V14.9625C91.9537 14.9625 91.5212 14.787 91.2359 14.4514C90.9479 14.1126 90.7953 13.5937 90.7953 12.877H90.6953ZM92.5527 15.0625V15.1625C93.1278 15.1625 93.6377 15.0546 94.0795 14.8357L94.0352 14.7461L93.9908 14.6565C93.5811 14.8594 93.1026 14.9625 92.5527 14.9625V15.0625ZM94.0352 14.7461H94.1352V10.8906H94.0352H93.9352V14.7461H94.0352ZM95.1191 16H95.0191C95.0191 16.7195 94.7917 17.2437 94.3498 17.5913C93.9033 17.9426 93.222 18.1266 92.2891 18.1266V18.2266V18.3266C93.2428 18.3266 93.9766 18.1394 94.4735 17.7485C94.9749 17.354 95.2191 16.7648 95.2191 16H95.1191ZM92.2891 18.2266V18.1266C91.5397 18.1266 90.8788 18.03 90.3051 17.8387L90.2734 17.9336L90.2418 18.0285C90.84 18.2278 91.5228 18.3266 92.2891 18.3266V18.2266ZM90.2734 17.9336H90.3734V17.0547H90.2734H90.1734V17.9336H90.2734ZM90.2734 17.0547L90.2424 17.1497C90.8518 17.3489 91.5384 17.4477 92.3008 17.4477V17.3477V17.2477C91.5554 17.2477 90.8904 17.1511 90.3045 16.9596L90.2734 17.0547ZM92.3008 17.3477V17.4477C92.8891 17.4477 93.3487 17.3338 93.6629 17.0897C93.9819 16.8418 94.1352 16.4723 94.1352 16H94.0352H93.9352C93.9352 16.4261 93.7993 16.7304 93.5402 16.9318C93.2763 17.1369 92.8687 17.2477 92.3008 17.2477V17.3477ZM94.0352 16H94.1352V15.707H94.0352H93.9352V16H94.0352ZM94.0352 15.707L93.9961 15.615C93.5483 15.8047 93.0656 15.9 92.5469 15.9V16V16.1C93.0907 16.1 93.6001 16 94.0742 15.7991L94.0352 15.707ZM92.5469 16V15.9C91.5913 15.9 90.8926 15.6456 90.4313 15.1538C89.9689 14.6607 89.7289 13.9119 89.7289 12.8887H89.6289H89.5289C89.5289 13.9397 89.7752 14.7465 90.2855 15.2906C90.7968 15.8359 91.5571 16.1 92.5469 16.1V16ZM89.6289 12.8887H89.7289C89.7289 11.8907 89.9812 11.1605 90.4683 10.679C90.9555 10.1973 91.6948 9.94766 92.7051 9.94766V9.84766V9.74766C91.6646 9.74766 90.8657 10.0048 90.3276 10.5368C89.7893 11.069 89.5289 11.8593 89.5289 12.8887H89.6289ZM92.7051 9.84766V9.94766C93.5303 9.94766 94.3279 10.031 95.098 10.1974L95.1191 10.0996L95.1403 10.0019C94.3557 9.83233 93.5439 9.74766 92.7051 9.74766V9.84766ZM95.1191 10.0996H95.0191V16H95.1191H95.2191V10.0996H95.1191ZM96.1504 9.84766V9.74766H96.0053L96.0569 9.88323L96.1504 9.84766ZM97.3281 9.84766L97.4221 9.8136L97.3983 9.74766H97.3281V9.84766ZM99.0684 14.6523L98.9743 14.6864L99.0668 14.9417L99.162 14.6874L99.0684 14.6523ZM100.867 9.84766V9.74766H100.798L100.774 9.81259L100.867 9.84766ZM102.016 9.84766L102.108 9.88506L102.164 9.74766H102.016V9.84766ZM99.4609 16.1816L99.5536 16.2192L99.5537 16.219L99.4609 16.1816ZM97.4219 18.2734L97.334 18.3211L97.3729 18.393L97.4511 18.3691L97.4219 18.2734ZM97.0059 17.5059L96.9658 17.4142L96.8661 17.4579L96.9179 17.5535L97.0059 17.5059ZM98.5059 16.0352L98.5967 16.0769L98.6142 16.0388L98.5993 15.9996L98.5059 16.0352ZM96.1504 9.84766V9.94766H97.3281V9.84766V9.74766H96.1504V9.84766ZM97.3281 9.84766L97.2341 9.88171L98.9743 14.6864L99.0684 14.6523L99.1624 14.6183L97.4221 9.8136L97.3281 9.84766ZM99.0684 14.6523L99.162 14.6874L100.961 9.88272L100.867 9.84766L100.774 9.81259L98.9747 14.6173L99.0684 14.6523ZM100.867 9.84766V9.94766H102.016V9.84766V9.74766H100.867V9.84766ZM102.016 9.84766L101.923 9.81025L99.3682 16.1442L99.4609 16.1816L99.5537 16.219L102.108 9.88506L102.016 9.84766ZM99.4609 16.1816L99.3683 16.1441C98.9231 17.2416 98.2625 17.9116 97.3926 18.1778L97.4219 18.2734L97.4511 18.3691C98.3937 18.0806 99.0925 17.3561 99.5536 16.2192L99.4609 16.1816ZM97.4219 18.2734L97.5098 18.2258L97.0938 17.4582L97.0059 17.5059L96.9179 17.5535L97.334 18.3211L97.4219 18.2734ZM97.0059 17.5059L97.0459 17.5975C97.7558 17.2869 98.2739 16.779 98.5967 16.0769L98.5059 16.0352L98.415 15.9934C98.1128 16.6507 97.6309 17.1233 96.9658 17.4142L97.0059 17.5059ZM98.5059 16.0352L98.5993 15.9996L96.2438 9.81208L96.1504 9.84766L96.0569 9.88323L98.4124 16.0707L98.5059 16.0352Z" fill="#006BCE" mask="url(#path-5-outside-1_406_375)"/>
</svg>
