<svg width="200" height="38" viewBox="0 0 200 38" fill="none" xmlns="http://www.w3.org/2000/svg">
<rect x="1" y="1" width="198" height="36" rx="4" fill="white" stroke="white" stroke-width="2"/>
<path d="M38 5C38 3.34315 39.3431 2 41 2H195C196.657 2 198 3.34315 198 5V33C198 34.6569 196.657 36 195 36H41C39.3431 36 38 34.6569 38 33V5Z" fill="#0D0D0D"/>
<rect x="16.75" y="10" width="4.5" height="18" rx="1" fill="#0D0D0D"/>
<rect x="28" y="16.75" width="4.5" height="18" rx="1" transform="rotate(90 28 16.75)" fill="#0D0D0D"/>
<mask id="path-5-outside-1_406_394" maskUnits="userSpaceOnUse" x="49" y="10" width="118" height="20" fill="black">
<rect fill="white" x="49" y="10" width="118" height="20"/>
<path d="M58.791 11.0352V12.5H51.4668V17.1875H58.4492V18.6523H51.4668V25H49.6602V11.0352H58.791ZM62.0723 19.834C62.0723 22.3014 63.0977 23.5352 65.1484 23.5352C67.1992 23.5352 68.2246 22.3014 68.2246 19.834C68.2246 17.4186 67.1992 16.2109 65.1484 16.2109C63.0977 16.2109 62.0723 17.4186 62.0723 19.834ZM60.2656 19.873C60.2656 16.4551 61.8932 14.7461 65.1484 14.7461C68.4036 14.7461 70.0312 16.4551 70.0312 19.873C70.0312 23.2845 68.4036 24.9902 65.1484 24.9902C61.9062 24.9902 60.2786 23.2845 60.2656 19.873ZM72.4727 25V14.7461H73.6934L74.0156 16.0547C74.9141 15.1823 75.9948 14.7461 77.2578 14.7461V16.25C76.0339 16.25 75.041 16.6829 74.2793 17.5488V25H72.4727ZM79.0742 25V14.7461H80.2949L80.5977 16.0352C81.5807 15.1758 82.6517 14.7461 83.8105 14.7461C85.2949 14.7461 86.3073 15.2148 86.8477 16.1523C87.9609 15.2148 89.0905 14.7461 90.2363 14.7461C92.5931 14.7461 93.7715 16.0449 93.7715 18.6426V25H91.9648V18.5449C91.9648 17.015 91.3203 16.25 90.0312 16.25C89.0677 16.25 88.166 16.6927 87.3262 17.5781V25H85.5195V18.5742C85.5195 17.0247 84.8815 16.25 83.6055 16.25C82.5898 16.25 81.6816 16.6927 80.8809 17.5781V25H79.0742ZM96.2227 21.9043C96.2227 19.8014 97.6094 18.75 100.383 18.75C101.275 18.75 102.167 18.8151 103.059 18.9453V17.9785C103.059 16.8001 102.137 16.2109 100.295 16.2109C99.2402 16.2109 98.1595 16.3737 97.0527 16.6992V15.2344C98.1595 14.9089 99.2402 14.7461 100.295 14.7461C103.342 14.7461 104.865 15.8073 104.865 17.9297V25H103.85L103.225 23.9844C102.202 24.6615 101.089 25 99.8848 25C97.4434 25 96.2227 23.9681 96.2227 21.9043ZM100.383 20.2148C98.8138 20.2148 98.0293 20.7682 98.0293 21.875C98.0293 22.9818 98.6478 23.5352 99.8848 23.5352C101.135 23.5352 102.193 23.2031 103.059 22.5391V20.4102C102.167 20.2799 101.275 20.2148 100.383 20.2148ZM115.52 24.707C114.673 24.9023 113.762 25 112.785 25C109.139 25 107.316 23.2259 107.316 19.6777C107.316 16.39 109.139 14.7461 112.785 14.7461C113.762 14.7461 114.673 14.8438 115.52 15.0391V16.5039C114.673 16.3086 113.729 16.2109 112.688 16.2109C110.311 16.2109 109.123 17.3665 109.123 19.6777C109.123 22.2493 110.311 23.5352 112.688 23.5352C113.729 23.5352 114.673 23.4375 115.52 23.2422V24.707ZM119.143 19.834C119.143 22.3014 120.168 23.5352 122.219 23.5352C124.27 23.5352 125.295 22.3014 125.295 19.834C125.295 17.4186 124.27 16.2109 122.219 16.2109C120.168 16.2109 119.143 17.4186 119.143 19.834ZM117.336 19.873C117.336 16.4551 118.964 14.7461 122.219 14.7461C125.474 14.7461 127.102 16.4551 127.102 19.873C127.102 23.2845 125.474 24.9902 122.219 24.9902C118.977 24.9902 117.349 23.2845 117.336 19.873ZM131.447 11.0352V25H129.641V11.0352H131.447ZM135.803 19.834C135.803 22.3014 136.828 23.5352 138.879 23.5352C140.93 23.5352 141.955 22.3014 141.955 19.834C141.955 17.4186 140.93 16.2109 138.879 16.2109C136.828 16.2109 135.803 17.4186 135.803 19.834ZM133.996 19.873C133.996 16.4551 135.624 14.7461 138.879 14.7461C142.134 14.7461 143.762 16.4551 143.762 19.873C143.762 23.2845 142.134 24.9902 138.879 24.9902C135.637 24.9902 134.009 23.2845 133.996 19.873ZM153.059 16.4844C152.44 16.3281 151.675 16.25 150.764 16.25C148.583 16.25 147.492 17.4316 147.492 19.7949C147.492 22.2233 148.524 23.4375 150.588 23.4375C151.525 23.4375 152.349 23.2617 153.059 22.9102V16.4844ZM154.865 25C154.865 27.474 153.293 28.7109 150.148 28.7109C148.885 28.7109 147.766 28.5482 146.789 28.2227V26.7578C147.785 27.0833 148.911 27.2461 150.168 27.2461C152.095 27.2461 153.059 26.4974 153.059 25V24.5117C152.29 24.8372 151.464 25 150.578 25C147.336 25 145.715 23.2715 145.715 19.8145C145.715 16.4355 147.424 14.7461 150.842 14.7461C152.229 14.7461 153.57 14.8861 154.865 15.166V25ZM156.584 14.7461H158.547L161.447 22.7539L164.445 14.7461H166.359L162.102 25.3027C161.346 27.1647 160.214 28.3268 158.703 28.7891L158.01 27.5098C159.156 27.0085 159.989 26.1914 160.51 25.0586L156.584 14.7461Z"/>
</mask>
<path d="M58.791 11.0352V12.5H51.4668V17.1875H58.4492V18.6523H51.4668V25H49.6602V11.0352H58.791ZM62.0723 19.834C62.0723 22.3014 63.0977 23.5352 65.1484 23.5352C67.1992 23.5352 68.2246 22.3014 68.2246 19.834C68.2246 17.4186 67.1992 16.2109 65.1484 16.2109C63.0977 16.2109 62.0723 17.4186 62.0723 19.834ZM60.2656 19.873C60.2656 16.4551 61.8932 14.7461 65.1484 14.7461C68.4036 14.7461 70.0312 16.4551 70.0312 19.873C70.0312 23.2845 68.4036 24.9902 65.1484 24.9902C61.9062 24.9902 60.2786 23.2845 60.2656 19.873ZM72.4727 25V14.7461H73.6934L74.0156 16.0547C74.9141 15.1823 75.9948 14.7461 77.2578 14.7461V16.25C76.0339 16.25 75.041 16.6829 74.2793 17.5488V25H72.4727ZM79.0742 25V14.7461H80.2949L80.5977 16.0352C81.5807 15.1758 82.6517 14.7461 83.8105 14.7461C85.2949 14.7461 86.3073 15.2148 86.8477 16.1523C87.9609 15.2148 89.0905 14.7461 90.2363 14.7461C92.5931 14.7461 93.7715 16.0449 93.7715 18.6426V25H91.9648V18.5449C91.9648 17.015 91.3203 16.25 90.0312 16.25C89.0677 16.25 88.166 16.6927 87.3262 17.5781V25H85.5195V18.5742C85.5195 17.0247 84.8815 16.25 83.6055 16.25C82.5898 16.25 81.6816 16.6927 80.8809 17.5781V25H79.0742ZM96.2227 21.9043C96.2227 19.8014 97.6094 18.75 100.383 18.75C101.275 18.75 102.167 18.8151 103.059 18.9453V17.9785C103.059 16.8001 102.137 16.2109 100.295 16.2109C99.2402 16.2109 98.1595 16.3737 97.0527 16.6992V15.2344C98.1595 14.9089 99.2402 14.7461 100.295 14.7461C103.342 14.7461 104.865 15.8073 104.865 17.9297V25H103.85L103.225 23.9844C102.202 24.6615 101.089 25 99.8848 25C97.4434 25 96.2227 23.9681 96.2227 21.9043ZM100.383 20.2148C98.8138 20.2148 98.0293 20.7682 98.0293 21.875C98.0293 22.9818 98.6478 23.5352 99.8848 23.5352C101.135 23.5352 102.193 23.2031 103.059 22.5391V20.4102C102.167 20.2799 101.275 20.2148 100.383 20.2148ZM115.52 24.707C114.673 24.9023 113.762 25 112.785 25C109.139 25 107.316 23.2259 107.316 19.6777C107.316 16.39 109.139 14.7461 112.785 14.7461C113.762 14.7461 114.673 14.8438 115.52 15.0391V16.5039C114.673 16.3086 113.729 16.2109 112.688 16.2109C110.311 16.2109 109.123 17.3665 109.123 19.6777C109.123 22.2493 110.311 23.5352 112.688 23.5352C113.729 23.5352 114.673 23.4375 115.52 23.2422V24.707ZM119.143 19.834C119.143 22.3014 120.168 23.5352 122.219 23.5352C124.27 23.5352 125.295 22.3014 125.295 19.834C125.295 17.4186 124.27 16.2109 122.219 16.2109C120.168 16.2109 119.143 17.4186 119.143 19.834ZM117.336 19.873C117.336 16.4551 118.964 14.7461 122.219 14.7461C125.474 14.7461 127.102 16.4551 127.102 19.873C127.102 23.2845 125.474 24.9902 122.219 24.9902C118.977 24.9902 117.349 23.2845 117.336 19.873ZM131.447 11.0352V25H129.641V11.0352H131.447ZM135.803 19.834C135.803 22.3014 136.828 23.5352 138.879 23.5352C140.93 23.5352 141.955 22.3014 141.955 19.834C141.955 17.4186 140.93 16.2109 138.879 16.2109C136.828 16.2109 135.803 17.4186 135.803 19.834ZM133.996 19.873C133.996 16.4551 135.624 14.7461 138.879 14.7461C142.134 14.7461 143.762 16.4551 143.762 19.873C143.762 23.2845 142.134 24.9902 138.879 24.9902C135.637 24.9902 134.009 23.2845 133.996 19.873ZM153.059 16.4844C152.44 16.3281 151.675 16.25 150.764 16.25C148.583 16.25 147.492 17.4316 147.492 19.7949C147.492 22.2233 148.524 23.4375 150.588 23.4375C151.525 23.4375 152.349 23.2617 153.059 22.9102V16.4844ZM154.865 25C154.865 27.474 153.293 28.7109 150.148 28.7109C148.885 28.7109 147.766 28.5482 146.789 28.2227V26.7578C147.785 27.0833 148.911 27.2461 150.168 27.2461C152.095 27.2461 153.059 26.4974 153.059 25V24.5117C152.29 24.8372 151.464 25 150.578 25C147.336 25 145.715 23.2715 145.715 19.8145C145.715 16.4355 147.424 14.7461 150.842 14.7461C152.229 14.7461 153.57 14.8861 154.865 15.166V25ZM156.584 14.7461H158.547L161.447 22.7539L164.445 14.7461H166.359L162.102 25.3027C161.346 27.1647 160.214 28.3268 158.703 28.7891L158.01 27.5098C159.156 27.0085 159.989 26.1914 160.51 25.0586L156.584 14.7461Z" fill="white"/>
<path d="M58.791 11.0352H58.991V10.8352H58.791V11.0352ZM58.791 12.5V12.7H58.991V12.5H58.791ZM51.4668 12.5V12.3H51.2668V12.5H51.4668ZM51.4668 17.1875H51.2668V17.3875H51.4668V17.1875ZM58.4492 17.1875H58.6492V16.9875H58.4492V17.1875ZM58.4492 18.6523V18.8523H58.6492V18.6523H58.4492ZM51.4668 18.6523V18.4523H51.2668V18.6523H51.4668ZM51.4668 25V25.2H51.6668V25H51.4668ZM49.6602 25H49.4602V25.2H49.6602V25ZM49.6602 11.0352V10.8352H49.4602V11.0352H49.6602ZM58.791 11.0352H58.591V12.5H58.791H58.991V11.0352H58.791ZM58.791 12.5V12.3H51.4668V12.5V12.7H58.791V12.5ZM51.4668 12.5H51.2668V17.1875H51.4668H51.6668V12.5H51.4668ZM51.4668 17.1875V17.3875H58.4492V17.1875V16.9875H51.4668V17.1875ZM58.4492 17.1875H58.2492V18.6523H58.4492H58.6492V17.1875H58.4492ZM58.4492 18.6523V18.4523H51.4668V18.6523V18.8523H58.4492V18.6523ZM51.4668 18.6523H51.2668V25H51.4668H51.6668V18.6523H51.4668ZM51.4668 25V24.8H49.6602V25V25.2H51.4668V25ZM49.6602 25H49.8602V11.0352H49.6602H49.4602V25H49.6602ZM49.6602 11.0352V11.2352H58.791V11.0352V10.8352H49.6602V11.0352ZM60.2656 19.873L60.0656 19.873L60.0656 19.8738L60.2656 19.873ZM62.0723 19.834H61.8723C61.8723 21.0905 62.1326 22.07 62.6875 22.7377C63.2483 23.4125 64.0815 23.7352 65.1484 23.7352V23.5352V23.3352C64.1646 23.3352 63.4597 23.041 62.9951 22.482C62.5246 21.916 62.2723 21.045 62.2723 19.834H62.0723ZM65.1484 23.5352V23.7352C66.2154 23.7352 67.0486 23.4125 67.6094 22.7377C68.1643 22.07 68.4246 21.0905 68.4246 19.834H68.2246H68.0246C68.0246 21.045 67.7722 21.916 67.3018 22.482C66.8372 23.041 66.1323 23.3352 65.1484 23.3352V23.5352ZM68.2246 19.834H68.4246C68.4246 18.6027 68.164 17.642 67.608 16.9873C67.0468 16.3262 66.214 16.0109 65.1484 16.0109V16.2109V16.4109C66.1337 16.4109 66.839 16.6995 67.3031 17.2461C67.7726 17.7991 68.0246 18.6499 68.0246 19.834H68.2246ZM65.1484 16.2109V16.0109C64.0829 16.0109 63.2501 16.3262 62.6888 16.9873C62.1329 17.642 61.8723 18.6027 61.8723 19.834H62.0723H62.2723C62.2723 18.6499 62.5243 17.7991 62.9938 17.2461C63.4579 16.6995 64.1632 16.4109 65.1484 16.4109V16.2109ZM60.2656 19.873H60.4656C60.4656 18.1925 60.8659 16.9693 61.6312 16.1658C62.3947 15.3641 63.5542 14.9461 65.1484 14.9461V14.7461V14.5461C63.4874 14.5461 62.2056 14.9826 61.3415 15.8899C60.4791 16.7954 60.0656 18.1356 60.0656 19.873H60.2656ZM65.1484 14.7461V14.9461C66.7427 14.9461 67.9022 15.3641 68.6657 16.1658C69.431 16.9693 69.8312 18.1925 69.8312 19.873H70.0312H70.2313C70.2313 18.1356 69.8177 16.7954 68.9554 15.8899C68.0913 14.9826 66.8094 14.5461 65.1484 14.5461V14.7461ZM70.0312 19.873H69.8312C69.8312 21.5502 69.431 22.771 68.6659 23.5729C67.9024 24.373 66.7428 24.7902 65.1484 24.7902V24.9902V25.1902C66.8093 25.1902 68.0911 24.7546 68.9552 23.849C69.8177 22.9452 70.2313 21.6073 70.2313 19.873H70.0312ZM65.1484 24.9902V24.7902C63.5609 24.7902 62.4044 24.3731 61.6408 23.5729C60.8754 22.7707 60.472 21.5496 60.4656 19.8723L60.2656 19.873L60.0656 19.8738C60.0722 21.608 60.4892 22.9454 61.3514 23.849C62.2154 24.7545 63.4938 25.1902 65.1484 25.1902V24.9902ZM72.4727 25H72.2727V25.2H72.4727V25ZM72.4727 14.7461V14.5461H72.2727V14.7461H72.4727ZM73.6934 14.7461L73.8876 14.6983L73.8501 14.5461H73.6934V14.7461ZM74.0156 16.0547L73.8214 16.1025L73.9048 16.4411L74.155 16.1982L74.0156 16.0547ZM77.2578 14.7461H77.4578V14.5461H77.2578V14.7461ZM77.2578 16.25V16.45H77.4578V16.25H77.2578ZM74.2793 17.5488L74.1291 17.4167L74.0793 17.4734V17.5488H74.2793ZM74.2793 25V25.2H74.4793V25H74.2793ZM72.4727 25H72.6727V14.7461H72.4727H72.2727V25H72.4727ZM72.4727 14.7461V14.9461H73.6934V14.7461V14.5461H72.4727V14.7461ZM73.6934 14.7461L73.4992 14.7939L73.8214 16.1025L74.0156 16.0547L74.2098 16.0069L73.8876 14.6983L73.6934 14.7461ZM74.0156 16.0547L74.155 16.1982C75.0157 15.3624 76.0463 14.9461 77.2578 14.9461V14.7461V14.5461C75.9433 14.5461 74.8124 15.0022 73.8763 15.9112L74.0156 16.0547ZM77.2578 14.7461H77.0578V16.25H77.2578H77.4578V14.7461H77.2578ZM77.2578 16.25V16.05C75.9804 16.05 74.9314 16.5048 74.1291 17.4167L74.2793 17.5488L74.4295 17.6809C75.1506 16.8611 76.0873 16.45 77.2578 16.45V16.25ZM74.2793 17.5488H74.0793V25H74.2793H74.4793V17.5488H74.2793ZM74.2793 25V24.8H72.4727V25V25.2H74.2793V25ZM79.0742 25H78.8742V25.2H79.0742V25ZM79.0742 14.7461V14.5461H78.8742V14.7461H79.0742ZM80.2949 14.7461L80.4896 14.7004L80.4534 14.5461H80.2949V14.7461ZM80.5977 16.0352L80.403 16.0809L80.479 16.4046L80.7293 16.1857L80.5977 16.0352ZM86.8477 16.1523L86.6744 16.2522L86.7937 16.4592L86.9765 16.3053L86.8477 16.1523ZM93.7715 25V25.2H93.9715V25H93.7715ZM91.9648 25H91.7648V25.2H91.9648V25ZM87.3262 17.5781L87.1811 17.4405L87.1262 17.4984V17.5781H87.3262ZM87.3262 25V25.2H87.5262V25H87.3262ZM85.5195 25H85.3195V25.2H85.5195V25ZM80.8809 17.5781L80.7325 17.444L80.6809 17.5011V17.5781H80.8809ZM80.8809 25V25.2H81.0809V25H80.8809ZM79.0742 25H79.2742V14.7461H79.0742H78.8742V25H79.0742ZM79.0742 14.7461V14.9461H80.2949V14.7461V14.5461H79.0742V14.7461ZM80.2949 14.7461L80.1002 14.7918L80.403 16.0809L80.5977 16.0352L80.7924 15.9894L80.4896 14.7004L80.2949 14.7461ZM80.5977 16.0352L80.7293 16.1857C81.6809 15.3539 82.7063 14.9461 83.8105 14.9461V14.7461V14.5461C82.5971 14.5461 81.4806 14.9977 80.466 15.8846L80.5977 16.0352ZM83.8105 14.7461V14.9461C85.2534 14.9461 86.1825 15.3989 86.6744 16.2522L86.8477 16.1523L87.0209 16.0525C86.4321 15.0308 85.3365 14.5461 83.8105 14.5461V14.7461ZM86.8477 16.1523L86.9765 16.3053C88.0637 15.3898 89.1492 14.9461 90.2363 14.9461V14.7461V14.5461C89.0318 14.5461 87.8582 15.0399 86.7188 15.9994L86.8477 16.1523ZM90.2363 14.7461V14.9461C91.3786 14.9461 92.2001 15.26 92.7396 15.8546C93.2824 16.4529 93.5715 17.37 93.5715 18.6426H93.7715H93.9715C93.9715 17.3175 93.6713 16.2863 93.0358 15.5858C92.3969 14.8816 91.4508 14.5461 90.2363 14.5461V14.7461ZM93.7715 18.6426H93.5715V25H93.7715H93.9715V18.6426H93.7715ZM93.7715 25V24.8H91.9648V25V25.2H93.7715V25ZM91.9648 25H92.1648V18.5449H91.9648H91.7648V25H91.9648ZM91.9648 18.5449H92.1648C92.1648 17.7567 91.9995 17.1282 91.6344 16.6949C91.2637 16.2549 90.7165 16.05 90.0312 16.05V16.25V16.45C90.6351 16.45 91.0546 16.6276 91.3285 16.9526C91.6079 17.2842 91.7648 17.8032 91.7648 18.5449H91.9648ZM90.0312 16.25V16.05C88.999 16.05 88.048 16.5265 87.1811 17.4405L87.3262 17.5781L87.4713 17.7158C88.284 16.8589 89.1364 16.45 90.0312 16.45V16.25ZM87.3262 17.5781H87.1262V25H87.3262H87.5262V17.5781H87.3262ZM87.3262 25V24.8H85.5195V25V25.2H87.3262V25ZM85.5195 25H85.7195V18.5742H85.5195H85.3195V25H85.5195ZM85.5195 18.5742H85.7195C85.7195 17.7771 85.5562 17.142 85.1954 16.7039C84.8285 16.2584 84.2857 16.05 83.6055 16.05V16.25V16.45C84.2013 16.45 84.6155 16.629 84.8866 16.9582C85.1638 17.2948 85.3195 17.8219 85.3195 18.5742H85.5195ZM83.6055 16.25V16.05C82.5233 16.05 81.5639 16.5247 80.7325 17.444L80.8809 17.5781L81.0292 17.7123C81.7993 16.8607 82.6564 16.45 83.6055 16.45V16.25ZM80.8809 17.5781H80.6809V25H80.8809H81.0809V17.5781H80.8809ZM80.8809 25V24.8H79.0742V25V25.2H80.8809V25ZM103.059 18.9453L103.03 19.1432L103.259 19.1766V18.9453H103.059ZM97.0527 16.6992H96.8527V16.9665L97.1092 16.8911L97.0527 16.6992ZM97.0527 15.2344L96.9963 15.0425L96.8527 15.0847V15.2344H97.0527ZM104.865 25V25.2H105.065V25H104.865ZM103.85 25L103.679 25.1048L103.738 25.2H103.85V25ZM103.225 23.9844L103.395 23.8796L103.287 23.7034L103.114 23.8176L103.225 23.9844ZM103.059 22.5391L103.18 22.6978L103.259 22.6377V22.5391H103.059ZM103.059 20.4102H103.259V20.2372L103.087 20.2123L103.059 20.4102ZM96.2227 21.9043H96.4227C96.4227 20.9009 96.7506 20.1778 97.3835 19.6979C98.0269 19.2101 99.0157 18.95 100.383 18.95V18.75V18.55C98.9765 18.55 97.8852 18.8156 97.1419 19.3792C96.388 19.9508 96.0227 20.8049 96.0227 21.9043H96.2227ZM100.383 18.75V18.95C101.265 18.95 102.147 19.0144 103.03 19.1432L103.059 18.9453L103.087 18.7474C102.186 18.6158 101.285 18.55 100.383 18.55V18.75ZM103.059 18.9453H103.259V17.9785H103.059H102.859V18.9453H103.059ZM103.059 17.9785H103.259C103.259 17.3274 102.999 16.819 102.475 16.4843C101.967 16.1595 101.231 16.0109 100.295 16.0109V16.2109V16.4109C101.201 16.4109 101.847 16.557 102.26 16.8213C102.658 17.0759 102.859 17.4512 102.859 17.9785H103.059ZM100.295 16.2109V16.0109C99.2194 16.0109 98.1197 16.1769 96.9963 16.5073L97.0527 16.6992L97.1092 16.8911C98.1993 16.5705 99.261 16.4109 100.295 16.4109V16.2109ZM97.0527 16.6992H97.2527V15.2344H97.0527H96.8527V16.6992H97.0527ZM97.0527 15.2344L97.1092 15.4262C98.1993 15.1056 99.261 14.9461 100.295 14.9461V14.7461V14.5461C99.2194 14.5461 98.1197 14.7121 96.9963 15.0425L97.0527 15.2344ZM100.295 14.7461V14.9461C101.801 14.9461 102.895 15.2095 103.608 15.7061C104.308 16.1935 104.665 16.9231 104.665 17.9297H104.865H105.065C105.065 16.8139 104.661 15.9517 103.837 15.3779C103.026 14.8133 101.835 14.5461 100.295 14.5461V14.7461ZM104.865 17.9297H104.665V25H104.865H105.065V17.9297H104.865ZM104.865 25V24.8H103.85V25V25.2H104.865V25ZM103.85 25L104.02 24.8952L103.395 23.8796L103.225 23.9844L103.054 24.0892L103.679 25.1048L103.85 25ZM103.225 23.9844L103.114 23.8176C102.124 24.4734 101.049 24.8 99.8848 24.8V25V25.2C101.129 25.2 102.281 24.8495 103.335 24.1511L103.225 23.9844ZM99.8848 25V24.8C98.6875 24.8 97.8268 24.5463 97.2673 24.0733C96.7143 23.6058 96.4227 22.8957 96.4227 21.9043H96.2227H96.0227C96.0227 22.9767 96.3414 23.8144 97.0091 24.3788C97.6703 24.9378 98.6407 25.2 99.8848 25.2V25ZM100.383 20.2148V20.0148C99.5809 20.0148 98.9437 20.1552 98.5024 20.4665C98.0483 20.7868 97.8293 21.268 97.8293 21.875H98.0293H98.2293C98.2293 21.3752 98.4025 21.0264 98.733 20.7933C99.0762 20.5512 99.6157 20.4148 100.383 20.4148V20.2148ZM98.0293 21.875H97.8293C97.8293 22.4653 97.9953 22.943 98.3598 23.2692C98.7201 23.5915 99.2406 23.7352 99.8848 23.7352V23.5352V23.3352C99.292 23.3352 98.8847 23.2021 98.6265 22.9711C98.3726 22.7439 98.2293 22.3914 98.2293 21.875H98.0293ZM99.8848 23.5352V23.7352C101.172 23.7352 102.275 23.3924 103.18 22.6978L103.059 22.5391L102.937 22.3804C102.111 23.0138 101.097 23.3352 99.8848 23.3352V23.5352ZM103.059 22.5391H103.259V20.4102H103.059H102.859V22.5391H103.059ZM103.059 20.4102L103.087 20.2123C102.186 20.0807 101.285 20.0148 100.383 20.0148V20.2148V20.4148C101.265 20.4148 102.147 20.4792 103.03 20.6081L103.059 20.4102ZM115.52 24.707L115.565 24.9019L115.72 24.8661V24.707H115.52ZM115.52 15.0391H115.72V14.88L115.565 14.8442L115.52 15.0391ZM115.52 16.5039L115.475 16.6988L115.72 16.7553V16.5039H115.52ZM115.52 23.2422H115.72V22.9908L115.475 23.0473L115.52 23.2422ZM115.52 24.707L115.475 24.5122C114.645 24.7037 113.748 24.8 112.785 24.8V25V25.2C113.775 25.2 114.702 25.101 115.565 24.9019L115.52 24.707ZM112.785 25V24.8C110.992 24.8 109.684 24.3636 108.823 23.5261C107.964 22.6896 107.516 21.4196 107.516 19.6777H107.316H107.116C107.116 21.4841 107.581 22.8752 108.544 23.8128C109.506 24.7493 110.933 25.2 112.785 25.2V25ZM107.316 19.6777H107.516C107.516 18.0703 107.961 16.8999 108.818 16.1275C109.678 15.3516 110.988 14.9461 112.785 14.9461V14.7461V14.5461C110.936 14.5461 109.512 14.9625 108.55 15.8305C107.583 16.702 107.116 17.9974 107.116 19.6777H107.316ZM112.785 14.7461V14.9461C113.748 14.9461 114.645 15.0424 115.475 15.2339L115.52 15.0391L115.565 14.8442C114.702 14.6451 113.775 14.5461 112.785 14.5461V14.7461ZM115.52 15.0391H115.32V16.5039H115.52H115.72V15.0391H115.52ZM115.52 16.5039L115.565 16.309C114.701 16.1097 113.741 16.0109 112.688 16.0109V16.2109V16.4109C113.717 16.4109 114.646 16.5075 115.475 16.6988L115.52 16.5039ZM112.688 16.2109V16.0109C111.47 16.0109 110.52 16.307 109.875 16.9343C109.229 17.5626 108.923 18.4899 108.923 19.6777H109.123H109.323C109.323 18.5544 109.611 17.7483 110.154 17.221C110.697 16.6927 111.529 16.4109 112.688 16.4109V16.2109ZM109.123 19.6777H108.923C108.923 20.9906 109.226 22.0126 109.867 22.7065C110.511 23.4035 111.464 23.7352 112.688 23.7352V23.5352V23.3352C111.534 23.3352 110.705 23.0239 110.161 22.4351C109.614 21.8432 109.323 20.9365 109.323 19.6777H109.123ZM112.688 23.5352V23.7352C113.741 23.7352 114.701 23.6364 115.565 23.4371L115.52 23.2422L115.475 23.0473C114.646 23.2386 113.717 23.3352 112.688 23.3352V23.5352ZM115.52 23.2422H115.32V24.707H115.52H115.72V23.2422H115.52ZM117.336 19.873L117.136 19.873L117.136 19.8738L117.336 19.873ZM119.143 19.834H118.943C118.943 21.0905 119.203 22.07 119.758 22.7377C120.319 23.4125 121.152 23.7352 122.219 23.7352V23.5352V23.3352C121.235 23.3352 120.53 23.041 120.065 22.482C119.595 21.916 119.343 21.045 119.343 19.834H119.143ZM122.219 23.5352V23.7352C123.286 23.7352 124.119 23.4125 124.68 22.7377C125.235 22.07 125.495 21.0905 125.495 19.834H125.295H125.095C125.095 21.045 124.843 21.916 124.372 22.482C123.907 23.041 123.203 23.3352 122.219 23.3352V23.5352ZM125.295 19.834H125.495C125.495 18.6027 125.234 17.642 124.678 16.9873C124.117 16.3262 123.284 16.0109 122.219 16.0109V16.2109V16.4109C123.204 16.4109 123.909 16.6995 124.373 17.2461C124.843 17.7991 125.095 18.6499 125.095 19.834H125.295ZM122.219 16.2109V16.0109C121.153 16.0109 120.32 16.3262 119.759 16.9873C119.203 17.642 118.943 18.6027 118.943 19.834H119.143H119.343C119.343 18.6499 119.595 17.7991 120.064 17.2461C120.528 16.6995 121.234 16.4109 122.219 16.4109V16.2109ZM117.336 19.873H117.536C117.536 18.1925 117.936 16.9693 118.701 16.1658C119.465 15.3641 120.625 14.9461 122.219 14.9461V14.7461V14.5461C120.558 14.5461 119.276 14.9826 118.412 15.8899C117.549 16.7954 117.136 18.1356 117.136 19.873H117.336ZM122.219 14.7461V14.9461C123.813 14.9461 124.973 15.3641 125.736 16.1658C126.501 16.9693 126.902 18.1925 126.902 19.873H127.102H127.302C127.302 18.1356 126.888 16.7954 126.026 15.8899C125.162 14.9826 123.88 14.5461 122.219 14.5461V14.7461ZM127.102 19.873H126.902C126.902 21.5502 126.501 22.771 125.736 23.5729C124.973 24.373 123.813 24.7902 122.219 24.7902V24.9902V25.1902C123.88 25.1902 125.161 24.7546 126.026 23.849C126.888 22.9452 127.302 21.6073 127.302 19.873H127.102ZM122.219 24.9902V24.7902C120.631 24.7902 119.475 24.3731 118.711 23.5729C117.946 22.7707 117.542 21.5496 117.536 19.8723L117.336 19.873L117.136 19.8738C117.143 21.608 117.56 22.9454 118.422 23.849C119.286 24.7545 120.564 25.1902 122.219 25.1902V24.9902ZM131.447 11.0352H131.647V10.8352H131.447V11.0352ZM131.447 25V25.2H131.647V25H131.447ZM129.641 25H129.441V25.2H129.641V25ZM129.641 11.0352V10.8352H129.441V11.0352H129.641ZM131.447 11.0352H131.247V25H131.447H131.647V11.0352H131.447ZM131.447 25V24.8H129.641V25V25.2H131.447V25ZM129.641 25H129.841V11.0352H129.641H129.441V25H129.641ZM129.641 11.0352V11.2352H131.447V11.0352V10.8352H129.641V11.0352ZM133.996 19.873L133.796 19.873L133.796 19.8738L133.996 19.873ZM135.803 19.834H135.603C135.603 21.0905 135.863 22.07 136.418 22.7377C136.979 23.4125 137.812 23.7352 138.879 23.7352V23.5352V23.3352C137.895 23.3352 137.19 23.041 136.726 22.482C136.255 21.916 136.003 21.045 136.003 19.834H135.803ZM138.879 23.5352V23.7352C139.946 23.7352 140.779 23.4125 141.34 22.7377C141.895 22.07 142.155 21.0905 142.155 19.834H141.955H141.755C141.755 21.045 141.503 21.916 141.032 22.482C140.568 23.041 139.863 23.3352 138.879 23.3352V23.5352ZM141.955 19.834H142.155C142.155 18.6027 141.894 17.642 141.338 16.9873C140.777 16.3262 139.944 16.0109 138.879 16.0109V16.2109V16.4109C139.864 16.4109 140.569 16.6995 141.034 17.2461C141.503 17.7991 141.755 18.6499 141.755 19.834H141.955ZM138.879 16.2109V16.0109C137.813 16.0109 136.981 16.3262 136.419 16.9873C135.863 17.642 135.603 18.6027 135.603 19.834H135.803H136.003C136.003 18.6499 136.255 17.7991 136.724 17.2461C137.188 16.6995 137.894 16.4109 138.879 16.4109V16.2109ZM133.996 19.873H134.196C134.196 18.1925 134.596 16.9693 135.362 16.1658C136.125 15.3641 137.285 14.9461 138.879 14.9461V14.7461V14.5461C137.218 14.5461 135.936 14.9826 135.072 15.8899C134.21 16.7954 133.796 18.1356 133.796 19.873H133.996ZM138.879 14.7461V14.9461C140.473 14.9461 141.633 15.3641 142.396 16.1658C143.161 16.9693 143.562 18.1925 143.562 19.873H143.762H143.962C143.962 18.1356 143.548 16.7954 142.686 15.8899C141.822 14.9826 140.54 14.5461 138.879 14.5461V14.7461ZM143.762 19.873H143.562C143.562 21.5502 143.161 22.771 142.396 23.5729C141.633 24.373 140.473 24.7902 138.879 24.7902V24.9902V25.1902C140.54 25.1902 141.822 24.7546 142.686 23.849C143.548 22.9452 143.962 21.6073 143.962 19.873H143.762ZM138.879 24.9902V24.7902C137.291 24.7902 136.135 24.3731 135.371 23.5729C134.606 22.7707 134.202 21.5496 134.196 19.8723L133.996 19.873L133.796 19.8738C133.803 21.608 134.22 22.9454 135.082 23.849C135.946 24.7545 137.224 25.1902 138.879 25.1902V24.9902ZM153.059 16.4844H153.259V16.3286L153.108 16.2905L153.059 16.4844ZM153.059 22.9102L153.147 23.0894L153.259 23.0343V22.9102H153.059ZM146.789 28.2227H146.589V28.3668L146.726 28.4124L146.789 28.2227ZM146.789 26.7578L146.851 26.5677L146.589 26.482V26.7578H146.789ZM153.059 24.5117H153.259V24.2098L152.981 24.3276L153.059 24.5117ZM154.865 15.166H155.065V15.0046L154.907 14.9705L154.865 15.166ZM153.059 16.4844L153.108 16.2905C152.468 16.1289 151.685 16.05 150.764 16.05V16.25V16.45C151.665 16.45 152.412 16.5274 153.01 16.6783L153.059 16.4844ZM150.764 16.25V16.05C149.638 16.05 148.758 16.3557 148.163 17.0006C147.571 17.6425 147.292 18.5863 147.292 19.7949H147.492H147.692C147.692 18.6403 147.959 17.8116 148.457 17.2719C148.952 16.7351 149.708 16.45 150.764 16.45V16.25ZM147.492 19.7949H147.292C147.292 21.0327 147.554 21.9984 148.114 22.6564C148.678 23.3206 149.516 23.6375 150.588 23.6375V23.4375V23.2375C149.596 23.2375 148.886 22.9473 148.419 22.3973C147.946 21.8412 147.692 20.9855 147.692 19.7949H147.492ZM150.588 23.4375V23.6375C151.551 23.6375 152.406 23.4569 153.147 23.0894L153.059 22.9102L152.97 22.7309C152.292 23.0665 151.5 23.2375 150.588 23.2375V23.4375ZM153.059 22.9102H153.259V16.4844H153.059H152.859V22.9102H153.059ZM154.865 25H154.665C154.665 26.1917 154.289 27.0544 153.562 27.626C152.827 28.2049 151.7 28.5109 150.148 28.5109V28.7109V28.9109C151.741 28.9109 152.973 28.5985 153.81 27.9404C154.655 27.2751 155.065 26.2823 155.065 25H154.865ZM150.148 28.7109V28.5109C148.902 28.5109 147.804 28.3503 146.852 28.0329L146.789 28.2227L146.726 28.4124C147.727 28.7461 148.869 28.9109 150.148 28.9109V28.7109ZM146.789 28.2227H146.989V26.7578H146.789H146.589V28.2227H146.789ZM146.789 26.7578L146.727 26.9479C147.747 27.2811 148.894 27.4461 150.168 27.4461V27.2461V27.0461C148.928 27.0461 147.824 26.8855 146.851 26.5677L146.789 26.7578ZM150.168 27.2461V27.4461C151.152 27.4461 151.927 27.2559 152.459 26.8425C153 26.4216 153.259 25.7949 153.259 25H153.059H152.859C152.859 25.7025 152.635 26.1988 152.213 26.5266C151.782 26.8619 151.111 27.0461 150.168 27.0461V27.2461ZM153.059 25H153.259V24.5117H153.059H152.859V25H153.059ZM153.059 24.5117L152.981 24.3276C152.239 24.642 151.438 24.8 150.578 24.8V25V25.2C151.489 25.2 152.342 25.0325 153.137 24.6959L153.059 24.5117ZM150.578 25V24.8C148.991 24.8 147.837 24.3776 147.077 23.5668C146.314 22.7536 145.915 21.5152 145.915 19.8145H145.715H145.515C145.515 21.5707 145.926 22.9251 146.785 23.8404C147.645 24.7581 148.923 25.2 150.578 25.2V25ZM145.715 19.8145H145.915C145.915 18.1564 146.334 16.9495 147.137 16.1554C147.941 15.3609 149.163 14.9461 150.842 14.9461V14.7461V14.5461C149.103 14.5461 147.761 14.976 146.856 15.871C145.95 16.7663 145.515 18.0936 145.515 19.8145H145.715ZM150.842 14.7461V14.9461C152.215 14.9461 153.542 15.0847 154.823 15.3615L154.865 15.166L154.907 14.9705C153.597 14.6874 152.242 14.5461 150.842 14.5461V14.7461ZM154.865 15.166H154.665V25H154.865H155.065V15.166H154.865ZM156.584 14.7461V14.5461H156.294L156.397 14.8172L156.584 14.7461ZM158.547 14.7461L158.735 14.678L158.687 14.5461H158.547V14.7461ZM161.447 22.7539L161.259 22.822L161.444 23.3326L161.635 22.824L161.447 22.7539ZM164.445 14.7461V14.5461H164.307L164.258 14.676L164.445 14.7461ZM166.359 14.7461L166.545 14.8209L166.656 14.5461H166.359V14.7461ZM162.102 25.3027L162.287 25.3779L162.287 25.3775L162.102 25.3027ZM158.703 28.7891L158.527 28.8844L158.605 29.0282L158.762 28.9803L158.703 28.7891ZM158.01 27.5098L157.93 27.3265L157.73 27.4138L157.834 27.6051L158.01 27.5098ZM160.51 25.0586L160.691 25.1421L160.727 25.0659L160.697 24.9874L160.51 25.0586ZM156.584 14.7461V14.9461H158.547V14.7461V14.5461H156.584V14.7461ZM158.547 14.7461L158.359 14.8142L161.259 22.822L161.447 22.7539L161.635 22.6858L158.735 14.678L158.547 14.7461ZM161.447 22.7539L161.635 22.824L164.633 14.8162L164.445 14.7461L164.258 14.676L161.26 22.6838L161.447 22.7539ZM164.445 14.7461V14.9461H166.359V14.7461V14.5461H164.445V14.7461ZM166.359 14.7461L166.174 14.6713L161.916 25.2279L162.102 25.3027L162.287 25.3775L166.545 14.8209L166.359 14.7461ZM162.102 25.3027L161.916 25.2276C161.177 27.0502 160.082 28.1578 158.645 28.5978L158.703 28.7891L158.762 28.9803C160.345 28.4958 161.516 27.2792 162.287 25.3779L162.102 25.3027ZM158.703 28.7891L158.879 28.6938L158.186 27.4145L158.01 27.5098L157.834 27.6051L158.527 28.8844L158.703 28.7891ZM158.01 27.5098L158.09 27.693C159.281 27.1721 160.15 26.3197 160.691 25.1421L160.51 25.0586L160.328 24.975C159.828 26.0632 159.031 26.8448 157.93 27.3265L158.01 27.5098ZM160.51 25.0586L160.697 24.9874L156.771 14.6749L156.584 14.7461L156.397 14.8172L160.323 25.1297L160.51 25.0586Z" fill="white" mask="url(#path-5-outside-1_406_394)"/>
</svg>
